<svg width="323.7" height="46.849636023953764" viewBox="0 0 369.5483870967742 53.48534886846785">
  <g id="SvgjsG1463"
     transform="matrix(0.5911726614478992,0,0,0.5911726614478992,-1.319758057041935,-2.818815060861176)" fill="#2240cd">
    <defs xmlns="http://www.w3.org/2000/svg"></defs>
    <g xmlns="http://www.w3.org/2000/svg" data-name="Shape 118">
      <path class="cls-1"
            d="M96.15,60.89a40.18,40.18,0,0,1-3,8.36C89.52,76.49,83.2,82,76.67,86.79a49,49,0,0,1-7.2,4.57C64.05,94,57.93,95,51.89,95.19c-12.82.48-26.34-2.34-36-10.84a39.5,39.5,0,0,1-7.35-8.78A44.13,44.13,0,0,1,9,29.35C17,17.14,30.71,9.64,44.88,6.32A54.67,54.67,0,0,1,55.52,4.78,41.1,41.1,0,0,1,89.61,21.51c8,11.14,9.87,26.05,6.55,39.38M75,12.89c-4.78-2.74-10.35-3.82-15.85-4.13-11.83-.66-24,2.22-33.79,8.87S8.21,34.79,6.23,46.48,7.9,70.85,16.37,79.14A34.45,34.45,0,0,0,37.5,88.76c2.45,0.2,5.19.24,6.93,2a5.45,5.45,0,0,0,3.62,1.18c17.25,1,34.64-9.34,41.94-25s4.06-35.64-7.82-48.2A31.78,31.78,0,0,0,75,12.89Z"
            style="fill: #2240cd;"></path>
      <path class="cls-1"
            d="M28,68.87A5.08,5.08,0,0,1,26.89,72a8.38,8.38,0,0,1-2.41,2.62,3.66,3.66,0,0,1-3.42.38,3.41,3.41,0,0,1-1.82-2.77,5.53,5.53,0,0,1,.86-3.3A5.58,5.58,0,0,1,24.21,66,3.47,3.47,0,0,1,28,68.87M22.42,70c-0.44.77-.58,2,0.26,2.33a1.46,1.46,0,0,0,1.18-.21,2.55,2.55,0,0,0,1.35-1.67,1.41,1.41,0,0,0-1.09-1.66A2,2,0,0,0,22.42,70Z"
            style="fill: #2240cd;"></path>
      <path class="cls-1"
            d="M58,78.25a5,5,0,0,1,3.45.21,3.29,3.29,0,0,1,2,1.2A2.58,2.58,0,0,1,63,82.41a25.64,25.64,0,0,0-1.86,2.28,1.84,1.84,0,0,1-2.13.69,3.6,3.6,0,0,1-1.81-1.54,4.91,4.91,0,0,1-.89-3A3,3,0,0,1,58,78.25m2.74,3.24a0.76,0.76,0,0,0-1.38-.3,1.51,1.51,0,0,0,.67.69,0.52,0.52,0,0,0,.72-0.41v0Z"
            style="fill: #2240cd;"></path>
      <path class="cls-1"
            d="M82.31,51.85A3.21,3.21,0,0,1,81,49.06a4,4,0,0,1,4.15-3.19,3.79,3.79,0,0,1,3.28,4,3.62,3.62,0,0,1-4.13,3,4.49,4.49,0,0,1-2-1.08m3.48-2.17a1.16,1.16,0,1,0-1.83.83A1.22,1.22,0,0,0,85.78,49.68Z"
            style="fill: #2240cd;"></path>
      <path class="cls-1"
            d="M79.28,68.41c-1.21,2.39-2.72,5-5.27,5.8-4,1.32-7.78-2.15-10.73-5.12a96.61,96.61,0,0,0-11.44-9.85c1.69,5.65,3.38,11.64,2,17.37a7.56,7.56,0,0,1-3.24,5,9.65,9.65,0,0,1-3.48.91,24.15,24.15,0,0,1-8.36.12C36,82,33.34,80.23,32.5,77.55c-1.06-3.38,1-6.88,2.9-9.84l9-13.85L30.62,59a31.53,31.53,0,0,1-8,2.18,10.62,10.62,0,0,1-7.81-2.09c-2.53-2.14-3.46-5.65-3.53-9-0.1-5.18,2.08-10.88,6.82-13s10.07-.05,14.78,2l7.71,3.29a77.55,77.55,0,0,1-6.46-10.28c-1.81-3.46-3.33-7.81-1.23-11.11a17.75,17.75,0,0,1,17.66-7.73,9.32,9.32,0,0,1,4.87,2.21c3,2.89,2.47,7.75,1.71,11.85L55,38.82,65.46,23.62c1.58-2.3,3.57-4.84,6.37-4.93,2.55-.08,4.64,2,6.06,4.08a25.18,25.18,0,0,1,4,17.72c-0.41,2.63-1.37,5.38-3.55,6.9-1.72,1.2-3.92,1.44-6,1.64l-7.1.69c4.69,2.16,11,.47,14.67,4.14a8.73,8.73,0,0,1,2.07,7.25,23,23,0,0,1-2.63,7.31m-29-21.58,4.68-23a6.88,6.88,0,0,0-3.87-7.19,10.19,10.19,0,0,0-8.5.15,20.24,20.24,0,0,0-6.81,5.43c-1.42,1.63-.7,4.15.21,6.11a52.82,52.82,0,0,0,14.3,18.47M73.81,23a2.5,2.5,0,0,0-2.27-1.11,2.56,2.56,0,0,0-1.17.87C63.67,30.24,58.87,39.17,54.13,48a0.89,0.89,0,0,0-.12.88,0.9,0.9,0,0,0,1,.16A111.47,111.47,0,0,1,74.7,46c1.73-.11,2.79-1.93,3.31-3.59A20.38,20.38,0,0,0,73.81,23M14.58,52.21a7.65,7.65,0,0,0,1.52,3.55c2.24,2.61,6.36,2.14,9.7,1.29a111.27,111.27,0,0,0,20.4-7.39c-2.11-2-4.85-3.24-7.53-4.41L27.38,40.33a13.71,13.71,0,0,0-3.85-1.24,8.27,8.27,0,0,0-7.71,4.15,12.76,12.76,0,0,0-1.23,9m57.95,2.07c-6.81-1.54-14-2.78-20.7-.92A245.24,245.24,0,0,0,70.29,70.69a3.43,3.43,0,0,0,4.14-.17,8.45,8.45,0,0,0,2.46-3.68,35.53,35.53,0,0,0,1.62-4.9,6.83,6.83,0,0,0,.16-3.72c-0.78-2.43-3.65-3.37-6.14-3.94M50.62,75.47c1.52-6.59-2-13.25-2.35-20A0.6,0.6,0,0,0,47.46,55a1.74,1.74,0,0,0-.77.72q-4.77,6.78-9.18,13.8a13.39,13.39,0,0,0-2,4.2,4.67,4.67,0,0,0,1.07,4.34c1.75,1.67,4.54,1.09,6.95,1.24,1.58,0.1,3.27.53,4.69-.17A5.22,5.22,0,0,0,50.62,75.47Z"
            style="fill: #2240cd;"></path>
      <path class="cls-1"
            d="M23.66,32.06a3.49,3.49,0,0,1-1.62.21,2.61,2.61,0,0,1-2-2.8,3.75,3.75,0,0,1,2.19-2.89c1.57-.75,3.86-0.31,4.42,1.35s-1.18,3.55-3,4.14m0.54-2.38A1.11,1.11,0,0,0,24.63,29a1.1,1.1,0,0,0-.71-0.42,1.1,1.1,0,0,0-.42.71,1.08,1.08,0,0,0,.71.42h0Z"
            style="fill: #2240cd;"></path>
      <path class="cls-1"
            d="M61.44,18.42a3,3,0,0,1-.22-3.13,3.2,3.2,0,0,1,1.25-1.46,2.76,2.76,0,0,1,3.8,1.51,3.12,3.12,0,0,1-1.91,3.76A2.7,2.7,0,0,1,61.44,18.42Z"
            style="fill: #2240cd;"></path>
    </g>
  </g>
  <g id="SvgjsG1464"
     transform="matrix(2.246313639770146,0,0,2.246313639770146,75.95520592019673,-0.5243693184850287)" fill="#2240cd">
    <path
      d="M6.94 19.96 l0.039942 -0.63998 c-1.96 -0.13334 -3.52 -0.94668 -4.68 -2.44 c-1.1067 -1.3867 -1.66 -3.06 -1.66 -5.02 c0 -1.0267 0.16666 -1.9167 0.5 -2.67 s0.83334 -1.4833 1.5 -2.19 c1.3333 -1.4 3 -2.1 5 -2.1 c1.2133 0 2.3066 0.26 3.28 0.78 s1.7667 1.2467 2.38 2.18 l0.48 -0.38 c-0.66666 -1.0133 -1.5333 -1.8067 -2.6 -2.38 c-1.0133 -0.54666 -2.16 -0.81332 -3.44 -0.79998 c-1.08 0 -2.0934 0.18334 -3.04 0.55 s-1.78 0.93 -2.5 1.69 c-0.72 0.77334 -1.2633 1.5733 -1.63 2.4 s-0.55 1.8 -0.55 2.92 c0.01334 2.12 0.62 3.9334 1.82 5.44 c1.28 1.6133 2.98 2.5 5.1 2.66 z M8.16 19.98002 c1.0933 -0.06666 2.0934 -0.32664 3 -0.77998 c1.04 -0.53334 1.9133 -1.2867 2.62 -2.26 l-0.46 -0.4 c-0.64 0.88 -1.4467 1.5733 -2.42 2.08 c-0.84 0.42666 -1.76 0.66666 -2.76 0.72 z M23.18 20 c2.2134 0 4.1 -0.78 5.66 -2.34 c0.77334 -0.76 1.3567 -1.58 1.75 -2.46 s0.59 -1.88 0.59 -3 c0 -2.2266 -0.78 -4.1066 -2.34 -5.64 c-1.56 -1.52 -3.4866 -2.2866 -5.78 -2.3 c-1.4133 0.01334 -2.74 0.36668 -3.98 1.06 c-1.2133 0.70666 -2.18 1.6867 -2.9 2.94 l0.58 0.32 c0.65334 -1.16 1.54 -2.06 2.66 -2.7 c1.1067 -0.64 2.32 -0.96666 3.64 -0.98 c2.1334 0.01334 3.9066 0.72668 5.32 2.14 c1.4133 1.3867 2.1266 3.1066 2.14 5.16 c0 1.0267 -0.18 1.9433 -0.54 2.75 s-0.88666 1.5633 -1.58 2.27 c-1.4267 1.4267 -3.1666 2.14 -5.22 2.14 c-1.28 0 -2.44 -0.27334 -3.48 -0.82 l-0.3 0.58 c1.1333 0.58666 2.3934 0.88 3.78 0.88 z M34.32 20 l0 -12.34 l0.8 0 l0 -0.56 l-1.34 0 l0 12.9 l0.54 0 z M39.120000000000005 4.800000000000001 l0 -0.56 l-5.34 0 l0 0.56 l5.34 0 z M42.26 20 l0 -12.34 l0.8 0 l0 -0.56 l-1.34 0 l0 12.9 l0.54 0 z M47.06 4.800000000000001 l0 -0.56 l-5.34 0 l0 0.56 l5.34 0 z M50.22 14.16 l0 -9.36 l4.8 0 l0 -0.56 l-5.36 0 l0 9.92 l0.56 0 z M55.22 20 l0 -0.54 l-5 0 l0 -4.14 l0.8 0 l0 -0.54 l-1.36 0 l0 5.22 l5.56 0 z M58.379999999999995 14.16 l0 -9.36 l4.8 0 l0 -0.56 l-5.36 0 l0 9.92 l0.56 0 z M63.379999999999995 20 l0 -0.54 l-5 0 l0 -4.14 l0.8 0 l0 -0.54 l-1.36 0 l0 5.22 l5.56 0 z M75.94 4.24 l-2.04 12.62 l-2.44 -12.62 l-0.36 0 l-1.74 10.02 c0 0.02666 0.0033398 0.12 0.01 0.28 s0.02 0.34 0.04 0.54 s0.04 0.39 0.06 0.57 s0.03666 0.29 0.05 0.33 c0.36 -1.92 0.65 -3.46 0.87 -4.62 s0.42334 -2.2334 0.61 -3.22 s0.28 -1.5 0.28 -1.54 c0 0.05334 0.13334 0.78334 0.4 2.19 s0.56 2.94 0.88 4.6 s0.74666 3.8634 1.28 6.61 l0.12 0 l2.62 -15.76 l-0.64 0 z M66.57999999999998 4.24 l-0.6 0 l2.62 15.76 l0.1 0 l0.3 -1.1 z M79.17999999999999 4.24 l0 15.76 l0.52 0 l0 -15.76 l-0.52 0 z M88.16 4.5 l-0.000019531 -0.26 l-5.86 0 l0 0.64 l3.38 0 l0 15.12 l0.7 0 l0 -15.12 l1.8 0 c-0.02666 -0.21334 -0.03332 -0.34 -0.01998 -0.38 z M88.67999999999999 4.24 l0 0.64 l1.1 0 l0 -0.64 l-1.1 0 z M93.06 13.96 l0 -9.72 l-0.68 0 l0 15.76 l0.68 0 l0 -5.4 l0 -0.64 z M93.33999999999999 14.6 l5.84 0 l0 5.4 l0.68 0 l0 -11.62 l-0.68 0 l0 5.58 l-5.84 0 l0 0.64 z M103.02 14.16 l0 -9.36 l4.8 0 l0 -0.56 l-5.36 0 l0 9.92 l0.56 0 z M108.02 20 l0 -0.54 l-5 0 l0 -4.14 l0.8 0 l0 -0.54 l-1.36 0 l0 5.22 l5.56 0 z M115.1 20 l0.06 -0.64002 c-0.76 -0.08 -1.4033 -0.33666 -1.93 -0.77 s-0.95 -0.97 -1.27 -1.61 s-0.55 -1.3533 -0.69 -2.14 s-0.21 -1.5733 -0.21 -2.36 l0 -0.74 c0 -0.85334 0.08666 -1.69 0.26 -2.51 s0.44 -1.55 0.8 -2.19 s0.82334 -1.1567 1.39 -1.55 s1.2433 -0.59 2.03 -0.59 c0.68 0 1.2 0.08666 1.56 0.26 s0.68666 0.37334 0.98 0.6 l0.4 -0.5 c-0.38666 -0.30666 -0.79666 -0.55 -1.23 -0.73 s-1.0033 -0.27 -1.71 -0.27 c-1.5333 0 -2.77 0.68334 -3.71 2.05 s-1.41 3.1766 -1.41 5.43 l0 0.74 c0 2.16 0.41666 3.9134 1.25 5.26 s1.9767 2.1 3.43 2.26 z M116.19999999999999 19.999980469 c1.1333 -0.08 2.1134 -0.46 2.94 -1.14 l0.12 -0.1 l0 -5.34 l-3.94 0 l0 0.66 l3.3 0 l0 4.38 c-0.69334 0.52 -1.5133 0.82 -2.46 0.9 z M126.53999999999999 20 l0.06 -0.64002 c-0.76 -0.08 -1.4033 -0.33666 -1.93 -0.77 s-0.95 -0.97 -1.27 -1.61 s-0.55 -1.3533 -0.69 -2.14 s-0.21 -1.5733 -0.21 -2.36 l0 -0.74 c0 -0.85334 0.08666 -1.69 0.26 -2.51 s0.44 -1.55 0.8 -2.19 s0.82334 -1.1567 1.39 -1.55 s1.2433 -0.59 2.03 -0.59 c0.68 0 1.2 0.08666 1.56 0.26 s0.68666 0.37334 0.98 0.6 l0.4 -0.5 c-0.38666 -0.30666 -0.79666 -0.55 -1.23 -0.73 s-1.0033 -0.27 -1.71 -0.27 c-1.5333 0 -2.77 0.68334 -3.71 2.05 s-1.41 3.1766 -1.41 5.43 l0 0.74 c0 2.16 0.41666 3.9134 1.25 5.26 s1.9767 2.1 3.43 2.26 z M127.63999999999999 19.999980469 c1.1333 -0.08 2.1134 -0.46 2.94 -1.14 l0.12 -0.1 l0 -5.34 l-3.94 0 l0 0.66 l3.3 0 l0 4.38 c-0.69334 0.52 -1.5133 0.82 -2.46 0.9 z"></path>
  </g>
</svg>
