<svg width="24" height="24" viewBox="0 0 24 24" fill="none" xmlns="http://www.w3.org/2000/svg">
  <path d="M12 13.8555C13.0355 13.8555 13.875 13.016 13.875 11.9805C13.875 10.945 13.0355 10.1055 12 10.1055C10.9645 10.1055 10.125 10.945 10.125 11.9805C10.125 13.016 10.9645 13.8555 12 13.8555Z" fill="#00D8FF"/>
  <path d="M12 16.2795C9.74635 16.334 7.49835 16.0302 5.34 15.3795C4.34297 15.0634 3.41305 14.5656 2.59725 13.911C2.28595 13.6874 2.0267 13.3991 1.83731 13.0659C1.64791 12.7326 1.53284 12.3624 1.5 11.9805C1.5 10.7408 2.862 9.52575 5.1435 8.73075C7.35955 8.02631 9.67494 7.68491 12 7.71975C14.294 7.6877 16.5784 8.02294 18.7665 8.71275C19.7267 9.01887 20.6251 9.49269 21.42 10.1123C21.726 10.3254 21.9813 10.6033 22.168 10.9262C22.3546 11.249 22.468 11.609 22.5 11.9805C22.5 13.269 20.9775 14.5748 18.525 15.3863C16.4084 16.0158 14.2079 16.317 12 16.2795ZM12 8.61675C9.77559 8.58702 7.56062 8.91158 5.43825 9.57825C3.33825 10.311 2.397 11.313 2.397 11.9783C2.397 12.6743 3.40875 13.7685 5.63025 14.5283C7.69505 15.1476 9.84496 15.436 12 15.3825C14.1123 15.4203 16.2179 15.1345 18.2438 14.535C20.55 13.7708 21.6 12.675 21.6 11.9805C21.5622 11.7422 21.4753 11.5143 21.3449 11.3112C21.2145 11.1082 21.0435 10.9343 20.8425 10.8008C20.1313 10.2511 19.3288 9.83118 18.4718 9.56025C16.3785 8.90307 14.1937 8.58456 12 8.61675Z" fill="#00D8FF"/>
  <path d="M7.74 21.3322C7.39012 21.3403 7.04438 21.2554 6.738 21.0862C5.664 20.4667 5.292 18.6802 5.74275 16.3065C6.23973 14.0348 7.10085 11.8585 8.29275 9.86175C9.41079 7.85857 10.8421 6.04718 12.5325 4.49625C13.2774 3.81727 14.1366 3.27565 15.0705 2.8965C15.4083 2.7382 15.7767 2.65614 16.1497 2.65614C16.5228 2.65614 16.8912 2.7382 17.229 2.8965C18.3457 3.54 18.7155 5.511 18.1942 8.04075C17.6819 10.1892 16.8432 12.2463 15.7072 14.1405C14.6285 16.12 13.2423 17.9156 11.6002 19.4602C10.8283 20.1658 9.9325 20.7225 8.958 21.102C8.56786 21.2468 8.15607 21.3246 7.74 21.3322ZM9.06975 10.3072C7.93282 12.2192 7.10749 14.3 6.62475 16.4715C6.21 18.6577 6.60825 19.9725 7.18725 20.307C7.78725 20.6542 9.24375 20.325 11.0122 18.78C12.5798 17.3002 13.9029 15.5814 14.9325 13.6875C16.0207 11.8766 16.8253 9.90985 17.3182 7.8555C17.8087 5.47425 17.385 4.01625 16.7835 3.66975C16.5581 3.58337 16.3171 3.5447 16.076 3.55619C15.8348 3.56768 15.5987 3.62907 15.3825 3.7365C14.5513 4.07951 13.787 4.56647 13.125 5.175C11.51 6.66059 10.1428 8.3947 9.075 10.3117L9.06975 10.3072Z" fill="#00D8FF"/>
  <path d="M16.2578 21.342C15.2415 21.342 13.9508 20.727 12.6068 19.5712C10.8868 18.0062 9.43124 16.1733 8.2965 14.1435C7.11955 12.1743 6.26526 10.0294 5.766 7.79025C5.54948 6.80511 5.50936 5.78939 5.6475 4.79025C5.67944 4.4196 5.7923 4.06048 5.97813 3.7382C6.16396 3.41591 6.41822 3.13832 6.723 2.925C7.83825 2.27925 9.7305 2.943 11.6618 4.6575C13.2672 6.17414 14.6305 7.92803 15.7043 9.858C16.8805 11.7813 17.7437 13.8791 18.2618 16.0732C18.4876 17.0945 18.5224 18.1488 18.3645 19.1827C18.3269 19.5641 18.2073 19.9327 18.0139 20.2635C17.8205 20.5942 17.5579 20.8793 17.244 21.099C16.9426 21.266 16.6022 21.3499 16.2578 21.342ZM9.07275 13.692C10.1613 15.6318 11.5517 17.386 13.1918 18.8887C14.8785 20.34 16.2165 20.652 16.7918 20.3137C17.3918 19.965 17.8343 18.5415 17.3783 16.2382C16.8787 14.1435 16.0507 12.1409 14.925 10.305C13.9004 8.45784 12.5991 6.77839 11.0663 5.325C9.24825 3.711 7.77375 3.35025 7.173 3.69825C6.98576 3.85041 6.8321 4.03974 6.72173 4.25429C6.61136 4.46884 6.54667 4.70394 6.53175 4.94475C6.41251 5.83581 6.45135 6.74093 6.6465 7.6185C7.12673 9.75985 7.94606 11.8107 9.0735 13.6935L9.07275 13.692Z" fill="#00D8FF"/>
</svg>
